<?xml version="1.0" standalone="no"?>
<!DOCTYPE svg PUBLIC "-//W3C//DTD SVG 20010904//EN"
 "http://www.w3.org/TR/2001/REC-SVG-20010904/DTD/svg10.dtd">
<svg version="1.0" xmlns="http://www.w3.org/2000/svg"
 width="300.000000pt" height="239.000000pt" viewBox="0 0 300.000000 239.000000"
 preserveAspectRatio="xMidYMid meet">
<metadata>
Created by potrace 1.10, written by Peter Selinger 2001-2011
</metadata>
<g transform="translate(0.000000,239.000000) scale(0.100000,-0.100000)"
fill="#ffffff" stroke="none">
<path d="M1388 2281 c-51 -17 -89 -46 -123 -96 l-33 -50 -7 -159 -7 -159 23 7
c13 3 51 9 84 12 58 6 60 5 73 -22 9 -21 12 -119 12 -376 l0 -348 34 0 34 0 5
348 c3 191 9 360 13 376 7 29 7 29 68 22 34 -3 72 -9 85 -12 23 -7 24 -5 18
26 -4 18 -7 90 -7 160 0 125 0 127 -31 173 -17 26 -50 59 -74 73 -47 27 -124
39 -167 25z m139 -58 c19 -9 48 -34 64 -56 28 -39 29 -43 29 -164 l0 -123 -55
0 c-45 0 -60 -5 -79 -23 -13 -13 -25 -30 -28 -38 -3 -10 -15 -3 -41 24 -32 34
-41 38 -79 37 -24 -1 -49 -1 -55 -1 -10 1 -13 33 -13 124 0 121 1 125 29 164
15 21 44 47 62 56 44 21 121 22 166 0z"/>
<path d="M1221 2259 c-333 -65 -650 -322 -787 -639 -78 -180 -109 -397 -84
-582 15 -109 24 -138 44 -138 23 0 24 10 9 95 -20 113 -12 333 17 440 51 190
145 350 290 496 126 128 258 207 440 263 75 24 130 53 130 70 0 7 0 7 -59 -5z"/>
<path d="M1620 2262 c0 -20 40 -42 118 -67 190 -60 332 -146 458 -277 97 -101
152 -181 210 -302 69 -147 87 -234 88 -416 1 -85 -3 -188 -8 -227 -7 -64 -7
-73 7 -73 24 0 33 25 47 128 22 163 3 355 -53 517 -116 338 -426 620 -772 703
-84 21 -95 22 -95 14z"/>
<path d="M1100 2131 c-95 -35 -127 -52 -220 -114 -143 -96 -273 -249 -350
-408 -55 -115 -78 -203 -92 -344 -9 -101 -8 -137 6 -229 15 -102 27 -138 42
-124 3 4 -2 55 -12 115 -49 314 54 623 284 849 110 108 227 182 369 234 66 24
102 50 67 50 -11 -1 -53 -14 -94 -29z"/>
<path d="M1692 2148 c3 -7 36 -24 74 -39 213 -79 380 -209 499 -389 138 -208
190 -447 151 -699 -10 -65 -12 -109 -7 -114 24 -24 55 193 47 328 -15 253
-115 473 -300 660 -101 101 -211 174 -342 225 -110 43 -128 47 -122 28z"/>
<path d="M961 1738 c-41 -4 -76 -10 -78 -12 -9 -9 28 -53 76 -89 71 -54 142
-80 223 -81 90 0 106 15 58 55 -51 43 -111 69 -193 84 -89 15 -68 31 30 22
123 -12 220 -82 247 -179 8 -29 16 -101 19 -160 l5 -108 -138 0 -138 0 0 -52
c-1 -32 4 -56 13 -62 8 -7 20 -56 29 -121 9 -60 19 -123 22 -140 l5 -30 -308
3 c-393 4 -653 -5 -653 -23 0 -18 82 -21 633 -23 l427 -2 0 26 c0 25 -2 26
-35 21 -24 -4 -35 -2 -35 6 0 7 -9 70 -20 141 -11 71 -20 133 -20 138 0 6 49
9 123 7 l122 -3 -1 174 c-2 188 -10 237 -48 289 -71 96 -199 138 -365 119z
m135 -94 c27 -9 56 -23 64 -30 12 -12 11 -14 -9 -14 -36 0 -94 20 -122 41 -23
18 -23 19 -3 19 11 0 43 -7 70 -16z m224 -429 c0 -8 -187 -25 -199 -18 -2 1
-1 9 3 18 5 13 22 15 101 13 55 -2 95 -7 95 -13z"/>
<path d="M1696 1716 c-67 -28 -106 -62 -147 -125 l-29 -45 0 -195 0 -196 114
0 c63 0 117 -3 121 -7 4 -3 -1 -57 -10 -120 -23 -162 -21 -156 -53 -160 -19
-2 -28 -9 -30 -25 l-3 -23 443 1 c460 1 613 7 613 24 0 9 -358 20 -801 24
l-160 1 19 133 c11 72 26 139 33 148 8 9 14 37 14 67 l0 52 -137 0 -138 0 6
127 c7 148 18 182 79 240 48 46 109 69 214 79 80 8 87 -9 9 -20 -87 -13 -121
-26 -183 -72 -43 -31 -59 -49 -52 -56 6 -6 44 -10 85 -11 62 0 84 5 138 30 82
38 185 121 170 136 -6 6 -63 13 -134 14 -112 3 -127 2 -181 -21z m156 -76
c-26 -22 -94 -43 -120 -38 -39 8 63 51 133 57 6 0 -1 -8 -13 -19z m-85 -425
c3 -9 4 -17 2 -19 -2 -2 -48 -1 -101 2 -75 3 -98 8 -98 18 0 22 188 20 197 -1z"/>
<path d="M1390 1050 c0 -12 -10 -25 -23 -31 -25 -11 -67 -86 -67 -119 0 -10
-4 -22 -10 -25 -5 -3 -10 -17 -10 -31 l0 -24 165 0 c157 0 165 1 165 20 0 10
-4 29 -9 42 -5 13 -17 44 -26 71 -12 33 -26 52 -46 62 -17 9 -29 24 -29 35 0
18 -7 20 -55 20 -49 0 -55 -2 -55 -20z m129 -60 c19 -9 51 -77 51 -105 0 -12
-21 -15 -125 -15 -69 0 -125 4 -125 8 0 31 35 105 54 112 29 12 123 12 145 0z"/>
<path d="M47 714 c-11 -11 -8 -262 2 -269 15 -9 31 29 31 74 0 40 0 40 43 43
29 2 42 8 42 18 0 10 -13 16 -42 18 -43 3 -43 3 -43 42 l0 39 63 3 c47 2 62 7
62 18 0 12 -16 16 -75 18 -42 1 -79 0 -83 -4z"/>
<path d="M320 618 c-17 -57 -36 -116 -41 -132 -12 -39 6 -60 27 -32 8 11 14
28 14 39 0 13 5 17 16 13 9 -3 31 -6 50 -6 26 0 34 -4 34 -18 0 -19 18 -42 32
-42 16 0 7 47 -30 160 -50 153 -61 154 -102 18z m59 -10 c25 -66 24 -68 -8
-68 -35 0 -35 -1 -19 51 13 45 16 47 27 17z"/>
<path d="M604 702 c-28 -22 -38 -56 -24 -82 6 -11 35 -34 65 -51 29 -16 56
-37 60 -47 7 -19 -19 -42 -46 -42 -22 0 -49 26 -49 46 0 20 -34 14 -38 -7 -4
-24 35 -67 68 -74 57 -13 117 41 103 93 -3 13 -27 34 -58 52 -68 39 -82 55
-65 76 21 24 72 14 88 -18 13 -28 48 -29 38 -1 -3 8 -6 19 -6 24 0 5 -9 18
-20 29 -25 25 -87 26 -116 2z"/>
<path d="M905 633 c-14 -49 -30 -101 -35 -117 -6 -16 -10 -37 -10 -47 0 -28
29 -23 36 6 5 22 12 25 50 25 38 0 46 -4 54 -25 9 -25 40 -35 40 -14 0 16 -38
142 -62 207 -11 28 -26 52 -33 52 -9 0 -24 -33 -40 -87z m58 -35 c2 -13 8 -31
12 -40 6 -15 2 -18 -24 -18 -35 0 -35 -1 -20 51 13 41 24 43 32 7z"/>
<path d="M1157 713 c-4 -3 -7 -64 -7 -133 l0 -127 48 -7 c58 -7 112 2 112 19
0 15 -32 25 -82 25 l-38 0 0 115 c0 89 -3 115 -13 115 -8 0 -17 -3 -20 -7z"/>
<path d="M1608 638 c-3 -46 -4 -96 -3 -113 2 -16 4 -40 4 -52 1 -13 7 -23 16
-23 11 0 15 18 17 78 l3 77 18 -41 c33 -75 52 -108 65 -112 8 -2 25 23 45 67
18 39 35 71 39 71 4 0 8 -33 10 -72 2 -42 7 -72 13 -70 14 3 13 264 -1 269 -6
2 -32 -43 -58 -99 l-48 -103 -29 65 c-72 164 -84 172 -91 58z"/>
<path d="M1964 707 c-2 -7 -3 -69 -2 -138 3 -102 6 -124 18 -124 12 0 15 23
18 138 2 119 0 137 -13 137 -9 0 -18 -6 -21 -13z"/>
<path d="M2115 710 c-10 -16 4 -30 31 -30 l24 0 0 -115 c0 -108 1 -115 20
-115 19 0 20 7 20 115 l0 115 28 0 c34 0 43 7 35 26 -6 17 -148 20 -158 4z"/>
<path d="M2386 698 c-9 -35 -7 -231 3 -247 15 -24 29 -3 36 54 4 30 11 55 16
55 5 0 25 -25 45 -55 23 -34 44 -55 55 -55 25 0 24 4 -11 62 -25 41 -28 50
-15 54 24 10 46 60 39 89 -10 42 -50 65 -109 65 -46 0 -53 -3 -59 -22z m118
-34 c21 -20 20 -30 -5 -55 -13 -13 -30 -19 -47 -17 -24 3 -27 7 -29 46 -1 41
-1 42 32 42 19 0 41 -7 49 -16z"/>
<path d="M2747 713 c-11 -17 -77 -238 -77 -255 0 -35 34 -13 42 27 2 11 9 20
16 19 6 -1 25 -2 41 -2 22 -2 34 -10 43 -29 16 -32 38 -42 38 -16 0 10 -16 73
-36 141 -34 110 -51 141 -67 115z m37 -145 c6 -26 4 -28 -23 -28 -29 0 -29 0
-19 38 18 65 24 64 42 -10z"/>
<path d="M374 359 c-3 -6 -2 -15 4 -21 13 -13 1761 -22 1982 -11 136 7 155 10
158 26 3 16 -53 17 -1067 17 -759 0 -1072 -3 -1077 -11z"/>
<path d="M832 273 c4 -25 210 -126 323 -159 75 -23 115 -28 244 -32 233 -7
354 19 552 118 105 53 132 76 104 86 -10 4 -62 -15 -133 -49 -327 -156 -655
-153 -973 9 -93 48 -122 54 -117 27z"/>
<path d="M1010 277 c0 -17 69 -46 190 -80 110 -30 382 -31 490 0 122 34 190
63 190 80 0 10 -5 13 -17 8 -166 -67 -261 -87 -418 -87 -141 0 -266 26 -417
87 -13 5 -18 2 -18 -8z"/>
</g>
</svg>
